<svg width="36" height="36" viewBox="0 0 36 36" fill="none" xmlns="http://www.w3.org/2000/svg">
<rect x="2" y="2" width="32" height="32" rx="8" fill="#0FD0BC"/>
<rect x="1" y="1" width="34" height="34" rx="9" stroke="black" stroke-opacity="0.3" stroke-width="2"/>
<path d="M18 10L15.91 12.09L18 14.18M10.27 9L9 10.27L13.73 15H9V21H13L18 26V19.27L22.25 23.53C21.58 24.04 20.83 24.46 20 24.7V26.77C21.38 26.45 22.63 25.82 23.68 24.96L25.73 27L27 25.73L18 16.73M25 18C25 18.94 24.8 19.82 24.46 20.64L25.97 22.15C26.6455 20.8709 26.999 19.4465 27 18C27 13.72 24 10.14 20 9.23V11.29C22.89 12.15 25 14.83 25 18ZM22.5 18C22.5 16.23 21.5 14.71 20 13.97V16.18L22.45 18.63C22.5 18.43 22.5 18.21 22.5 18Z" fill="white"/>
</svg>
