<svg width="206" height="61" viewBox="0 0 206 61" fill="none" xmlns="http://www.w3.org/2000/svg">
<path d="M0.745614 30.1184L28.1157 1.61363H179.031L204.725 30.1184L179.031 58.6231H28.1157L0.745614 30.1184Z" fill="#D9D9D9"/>
<path d="M0.745614 30.1184L28.1157 1.61363H179.031L204.725 30.1184L179.031 58.6231H28.1157L0.745614 30.1184Z" fill="#440402"/>
<path d="M0.745614 30.1184L28.1157 1.61363H179.031L204.725 30.1184L179.031 58.6231H28.1157L0.745614 30.1184Z" stroke="url(#paint0_linear_2362_1944)" stroke-width="1.07565"/>
<path d="M80.8952 25.4092C80.8952 26.6942 80.5854 27.8989 79.9659 29.0234C79.3692 30.1478 78.4169 31.0542 77.1089 31.7426C75.8239 32.431 74.1946 32.7752 72.2212 32.7752H68.1939V42H63.375V17.9743H72.2212C74.0799 17.9743 75.6633 18.2955 76.9713 18.9381C78.2792 19.5806 79.2545 20.464 79.897 21.5885C80.5625 22.7129 80.8952 23.9864 80.8952 25.4092ZM72.0147 28.8857C73.3456 28.8857 74.3323 28.5874 74.9748 27.9907C75.6174 27.3712 75.9386 26.5106 75.9386 25.4092C75.9386 23.0686 74.6306 21.8982 72.0147 21.8982H68.1939V28.8857H72.0147ZM89.1355 38.1793H97.0523V42H84.3166V17.9743H89.1355V38.1793ZM114.847 37.422H105.278L103.695 42H98.6351L107.275 17.9399H112.885L121.525 42H116.431L114.847 37.422ZM113.539 33.5669L110.063 23.516L106.586 33.5669H113.539ZM143.858 17.9743L135.735 33.6357V42H130.916V33.6357L122.758 17.9743H128.196L133.36 28.9545L138.488 17.9743H143.858Z" fill="white"/>
<defs>
<linearGradient id="paint0_linear_2362_1944" x1="102.725" y1="1.07581" x2="102.725" y2="59.1609" gradientUnits="userSpaceOnUse">
<stop stop-color="#FFEDBA"/>
<stop offset="1" stop-color="#FFBB00"/>
</linearGradient>
</defs>
</svg>
