<svg width="207" height="61" viewBox="0 0 207 61" fill="none" xmlns="http://www.w3.org/2000/svg">
<path d="M1.6443 30.1186L29.0143 1.61387H179.929L205.624 30.1186L179.929 58.6233H29.0143L1.6443 30.1186Z" fill="#D9D9D9"/>
<path d="M1.6443 30.1186L29.0143 1.61387H179.929L205.624 30.1186L179.929 58.6233H29.0143L1.6443 30.1186Z" fill="#440402"/>
<path d="M1.6443 30.1186L29.0143 1.61387H179.929L205.624 30.1186L179.929 58.6233H29.0143L1.6443 30.1186Z" stroke="url(#paint0_linear_2362_1938)" stroke-width="1.07565"/>
<path d="M102.913 17.9743L96.2013 42H90.5219L86.0128 24.8929L81.2971 42L75.6521 42.0344L69.181 17.9743H74.3441L78.5779 36.6304L83.4656 17.9743H88.8353L93.4476 36.5271L97.7158 17.9743H102.913ZM110.879 17.9743V42H106.06V17.9743H110.879ZM136.189 42H131.37L120.459 25.5124V42H115.64V17.9399H120.459L131.37 34.4618V17.9399H136.189V42Z" fill="white"/>
<defs>
<linearGradient id="paint0_linear_2362_1938" x1="103.623" y1="1.07605" x2="103.623" y2="59.1612" gradientUnits="userSpaceOnUse">
<stop stop-color="#FFEDBA"/>
<stop offset="1" stop-color="#FFBB00"/>
</linearGradient>
</defs>
</svg>
